<svg xmlns="http://www.w3.org/2000/svg" viewBox="0 0 500 500" width="500" height="500">
  <defs>
    <clipPath id="clippath2" transform="">
      <path d="M 0 612.283 L 858.898 612.283 L 858.898 0 L 0 0 Z" style="fill: none; clip-rule: nonzero;"></path>
    </clipPath>
  </defs>
  <g transform="matrix(1.069035, 0, 0, 1.05953, -200.473312, -32.79208)" style="">
    <g transform="matrix(1 0 0 -1 0 612.283)">
      <g style="clip-path: url(#clippath2);">
        <g transform="translate(526.0303 276.1458)">
          <path d="M 0 0 C 0 -82.341 -61.972 -71.109 -129.63 -71.109 C -197.288 -71.109 -250.752 -91.571 -245.013 -9.431 C -239.02 76.348 -228.328 96.832 -130.111 96.832 C -62.452 96.832 0 82.341 0 0" style="fill: rgb(255, 255, 255); fill-opacity: 1;"></path>
        </g>
      </g>
      <g style="clip-path: url(#clippath2);">
        <g transform="translate(526.0303 276.1458)">
          <path d="M 0 0 C 0 -82.341 -61.972 -71.109 -129.63 -71.109 C -197.288 -71.109 -250.752 -91.571 -245.013 -9.431 C -239.02 76.348 -228.328 96.832 -130.111 96.832 C -62.452 96.832 0 82.341 0 0 Z" style="fill: none; stroke: rgb(255, 255, 255); stroke-opacity: 1; stroke-miterlimit: 0; stroke-width: 1px; stroke-dashoffset: 0px;"></path>
        </g>
      </g>
      <g style="clip-path: url(#clippath2);">
        <g transform="translate(332.8677 276.1458)">
          <path d="M 0 0 C 0 -82.341 61.971 -71.109 129.629 -71.109 C 197.288 -71.109 250.751 -91.571 245.012 -9.431 C 239.019 76.348 228.327 96.832 130.11 96.832 C 62.452 96.832 0 82.341 0 0" style="fill: rgb(255, 255, 255); fill-opacity: 1;"></path>
        </g>
      </g>
      <g style="clip-path: url(#clippath2);">
        <g transform="translate(332.8677 276.1458)">
          <path d="M 0 0 C 0 -82.341 61.971 -71.109 129.629 -71.109 C 197.288 -71.109 250.751 -91.571 245.012 -9.431 C 239.019 76.348 228.327 96.832 130.11 96.832 C 62.452 96.832 0 82.341 0 0 Z" style="fill: none; stroke: rgb(255, 255, 255); stroke-opacity: 1; stroke-miterlimit: 0; stroke-width: 1px; stroke-dashoffset: 0px;"></path>
        </g>
      </g>
      <g style="clip-path: url(#clippath2);">
        <g transform="translate(548.2921 264.7991)">
          <path d="M 0 0 C 0 -81.282 -54.848 -147.175 -122.506 -147.175 C -190.165 -147.175 -245.013 -81.282 -245.013 0 C -245.013 81.283 -190.165 147.176 -122.506 147.176 C -54.848 147.176 0 81.283 0 0" style="fill: rgb(44, 46, 53); fill-opacity: 1;"></path>
        </g>
      </g>
      <g style="clip-path: url(#clippath2);">
        <g transform="translate(403.524 531.1917)">
          <path d="M 0 0 C 0 -24.043 -20.442 -28.654 -43.535 -35.349 C -80.727 -46.131 -72.518 -39.347 -87.07 0 C -95.411 22.551 -67.579 43.535 -43.535 43.535 C -19.492 43.535 0 24.044 0 0" style="fill: rgb(44, 46, 53); fill-opacity: 1;"></path>
        </g>
      </g>
      <g style="clip-path: url(#clippath2);">
        <g transform="translate(444.4326 531.1917)">
          <path d="M 0 0 C 0 -24.043 20.441 -28.654 43.535 -35.349 C 80.727 -46.131 72.517 -39.347 87.069 0 C 95.41 22.551 67.578 43.535 43.535 43.535 C 19.491 43.535 0 24.044 0 0" style="fill: rgb(44, 46, 53); fill-opacity: 1;"></path>
        </g>
      </g>
      <g style="clip-path: url(#clippath2);">
        <g transform="translate(421.7564 554.634)">
          <path d="M 0 0 C -58.568 0 -115.721 -56.409 -115.721 -114.978 C -115.721 -173.545 -58.568 -212.094 0 -212.094 C 58.568 -212.094 115.721 -173.545 115.721 -114.978 C 115.721 -56.409 58.568 0 0 0" style="fill: rgb(255, 255, 255); fill-opacity: 1;"></path>
        </g>
      </g>
      <g style="clip-path: url(#clippath2);">
        <g transform="translate(479.2383 474.1951)">
          <path d="M 0 0 C 7.637 -13.227 5.604 -28.698 -4.54 -34.555 C -14.685 -40.411 -29.099 -34.437 -36.735 -21.209 C -44.372 -7.982 -42.339 7.488 -32.195 13.345 C -22.051 19.202 -7.637 13.227 0 0" style="fill: rgb(44, 46, 53); fill-opacity: 1;"></path>
        </g>
      </g>
      <g style="clip-path: url(#clippath2);">
        <g transform="translate(463.8936 454.7307)">
          <path d="M 0 0 C 0.874 -3.822 -1.098 -7.533 -4.403 -8.289 C -7.709 -9.044 -11.097 -6.559 -11.971 -2.736 C -12.844 1.086 -10.873 4.797 -7.567 5.553 C -4.262 6.308 -0.874 3.822 0 0" style="fill: rgb(255, 255, 255); fill-opacity: 1;"></path>
        </g>
      </g>
      <g style="clip-path: url(#clippath2);">
        <g transform="translate(364.274 474.1951)">
          <path d="M 0 0 C -7.636 -13.227 -5.604 -28.698 4.541 -34.555 C 14.685 -40.411 29.1 -34.437 36.736 -21.209 C 44.373 -7.982 42.34 7.488 32.195 13.345 C 22.051 19.202 7.637 13.227 0 0" style="fill: rgb(44, 46, 53); fill-opacity: 1;"></path>
        </g>
      </g>
      <g style="clip-path: url(#clippath2);">
        <g transform="translate(379.6192 454.7307)">
          <path d="M 0 0 C -0.874 -3.822 1.098 -7.533 4.403 -8.289 C 7.709 -9.044 11.097 -6.559 11.971 -2.736 C 12.844 1.086 10.873 4.797 7.567 5.553 C 4.262 6.308 0.874 3.822 0 0" style="fill: rgb(255, 255, 255); fill-opacity: 1;"></path>
        </g>
      </g>
      <g style="clip-path: url(#clippath2);">
        <g transform="translate(445.626 414.9436)">
          <path d="M 0 0 C 0 -7.575 -10.687 -19.669 -23.87 -19.669 C -37.053 -19.669 -47.74 -7.575 -47.74 0 C -47.74 7.575 -37.053 13.715 -23.87 13.715 C -10.687 13.715 0 7.575 0 0" style="fill: rgb(44, 46, 53); fill-opacity: 1;"></path>
        </g>
      </g>
      <g style="clip-path: url(#clippath2);">
        <g transform="translate(412.4444 171.4895)">
          <path d="M 0 0 C 0 -37.925 -23.365 -68.67 -52.187 -68.67 C -81.009 -68.67 -104.374 -37.925 -104.374 0 C -104.374 37.926 -81.009 73.978 -52.187 73.978 C -23.365 73.978 0 37.926 0 0" style="fill: rgb(255, 255, 255); fill-opacity: 1;"></path>
        </g>
      </g>
      <g style="clip-path: url(#clippath2);">
        <g transform="translate(344.0235 205.7278)">
          <path d="M 0 0 C 0 -6.174 -3.793 -14.475 -8.473 -14.475 C -13.152 -14.475 -16.946 -6.174 -16.946 0 C -16.946 6.174 -13.152 11.18 -8.473 11.18 C -3.793 11.18 0 6.174 0 0" style="fill: rgb(44, 46, 53); fill-opacity: 1;"></path>
        </g>
      </g>
      <g style="clip-path: url(#clippath2);">
        <g transform="translate(396.4004 205.0364)">
          <path d="M 0 0 C 0 -6.174 -3.793 -14.475 -8.473 -14.475 C -13.152 -14.475 -16.945 -6.174 -16.945 0 C -16.945 6.174 -13.152 11.18 -8.473 11.18 C -3.793 11.18 0 6.174 0 0" style="fill: rgb(44, 46, 53); fill-opacity: 1;"></path>
        </g>
      </g>
      <g style="clip-path: url(#clippath2);">
        <g transform="translate(371.6934 220.7395)">
          <path d="M 0 0 C 0 -7.254 -4.457 -17.005 -9.954 -17.005 C -15.452 -17.005 -19.908 -7.254 -19.908 0 C -19.908 7.254 -15.452 13.134 -9.954 13.134 C -4.457 13.134 0 7.254 0 0" style="fill: rgb(44, 46, 53); fill-opacity: 1;"></path>
        </g>
      </g>
      <g style="clip-path: url(#clippath2);">
        <g transform="translate(360.7388 126.2952)">
          <path d="M 0 0 L 0 0.004 C 19.578 0.088 38.602 6.059 34.658 27.273 C 32.778 37.381 19.727 25.932 0 25.932 L 0 25.934 C -0.081 25.934 -0.161 25.933 -0.241 25.933 C -0.321 25.933 -0.401 25.934 -0.481 25.934 L -0.481 25.932 C -20.208 25.932 -33.259 37.381 -35.139 27.273 C -39.083 6.059 -20.059 0.088 -0.481 0.004 L -0.481 0.256 C -0.366 2.129 -0.444 -0.001 -0.425 -0.001 C -0.363 -0.001 -0.302 0.001 -0.241 0.001" style="fill: rgb(44, 46, 53); fill-opacity: 1;"></path>
        </g>
      </g>
      <g style="clip-path: url(#clippath2);">
        <g transform="translate(431.0684 171.4895)">
          <path d="M 0 0 C 0 -37.925 23.364 -68.67 52.187 -68.67 C 81.009 -68.67 104.374 -37.925 104.374 0 C 104.374 37.926 81.009 73.978 52.187 73.978 C 23.364 73.978 0 37.926 0 0" style="fill: rgb(255, 255, 255); fill-opacity: 1;"></path>
        </g>
      </g>
      <g style="clip-path: url(#clippath2);">
        <g transform="translate(499.4893 205.7278)">
          <path d="M 0 0 C 0 -6.174 3.794 -14.475 8.473 -14.475 C 13.152 -14.475 16.946 -6.174 16.946 0 C 16.946 6.174 13.152 11.18 8.473 11.18 C 3.794 11.18 0 6.174 0 0" style="fill: rgb(44, 46, 53); fill-opacity: 1;"></path>
        </g>
      </g>
      <g style="clip-path: url(#clippath2);">
        <g transform="translate(447.1123 205.0364)">
          <path d="M 0 0 C 0 -6.174 3.793 -14.475 8.473 -14.475 C 13.152 -14.475 16.945 -6.174 16.945 0 C 16.945 6.174 13.152 11.18 8.473 11.18 C 3.793 11.18 0 6.174 0 0" style="fill: rgb(44, 46, 53); fill-opacity: 1;"></path>
        </g>
      </g>
      <g style="clip-path: url(#clippath2);">
        <g transform="translate(471.8194 220.7395)">
          <path d="M 0 0 C 0 -7.254 4.457 -17.005 9.954 -17.005 C 15.452 -17.005 19.908 -7.254 19.908 0 C 19.908 7.254 15.452 13.134 9.954 13.134 C 4.457 13.134 0 7.254 0 0" style="fill: rgb(44, 46, 53); fill-opacity: 1;"></path>
        </g>
      </g>
      <g style="clip-path: url(#clippath2);">
        <g transform="translate(482.7744 126.2952)">
          <path d="M 0 0 L 0 0.004 C -19.578 0.088 -38.603 6.059 -34.658 27.273 C -32.778 37.381 -19.727 25.932 0 25.932 L 0 25.934 C 0.08 25.934 0.16 25.933 0.24 25.933 C 0.32 25.933 0.4 25.934 0.48 25.934 L 0.48 25.932 C 20.207 25.932 33.259 37.381 35.139 27.273 C 39.083 6.059 20.059 0.088 0.48 0.004 L 0.48 0.256 C 0.365 2.129 0.443 -0.001 0.425 -0.001 C 0.363 -0.001 0.302 0.001 0.24 0.001" style="fill: rgb(44, 46, 53); fill-opacity: 1;"></path>
        </g>
      </g>
    </g>
  </g>
</svg>